<svg xmlns="http://www.w3.org/2000/svg" viewBox="200 520 280 390" fill="currentColor">
  <path d="M214.802 556.668L473.479 556.646C473.896 597.828 472.837 641.203 472.784 682.676L416.626 777.551L407.146 777.594L349.42 777.518C354.271 765.496 364.772 745.541 370.767 733.231L415.897 640.365L273.121 641.141C271.242 638.757 269.34 635.907 267.644 633.375C250.412 607.644 231.746 582.564 214.802 556.668Z"/>
  <path d="M293.652 698.756C308.596 698.506 325.054 699.014 340.118 699.212C335.946 710.359 324.984 731.163 319.318 742.857L274.393 835.743L416.65 835.174C434.582 860.502 456.574 890.924 473.108 916.937L463.501 917.183L215.882 916.943C215.254 877.429 215.618 835.979 215.724 796.385C235.43 765.336 253.797 731.089 272.626 699.183L293.652 698.756Z"/>
</svg>